<svg xmlns="http://www.w3.org/2000/svg" xmlns:xlink="http://www.w3.org/1999/xlink" width="512" height="512" viewBox="0 0 512 512">
  <defs>
    <clipPath id="clip-Nest">
      <rect width="512" height="512"/>
    </clipPath>
  </defs>
  <g id="Nest" clip-path="url(#clip-Nest)">
    <g id="Logo" transform="translate(-6.006 164.423)">
      <path id="path818" d="M307.478,45.652A32.452,32.452,0,0,0,297.164,47.5a29.121,29.121,0,0,1,12.3,17.189c.133.926.4,1.587.529,2.512a14.526,14.526,0,0,1,.264,2.38c.529,11.636-3.041,13.09-5.553,19.966a28.254,28.254,0,0,0,1.851,26.048,15.792,15.792,0,0,0,1.587,2.909c-5.025-33.453,22.875-38.477,28.032-48.923.4-9.124-7.14-15.206-13.09-19.437a29.212,29.212,0,0,0-15.6-4.5Zm42.047,7.537c-.529,3.041-.132,2.248-.264,3.835-.132,1.058-.132,2.38-.264,3.438a28.724,28.724,0,0,1-.926,3.173,29.717,29.717,0,0,1-1.058,3.173c-.529,1.058-.926,1.983-1.454,3.041-.4.529-.661,1.058-1.058,1.587l-.793,1.19c-.661.926-1.322,1.851-1.983,2.644a20.232,20.232,0,0,1-2.38,2.38v.132c-.793.661-1.587,1.454-2.512,2.116-2.777,2.116-5.95,3.7-8.859,5.686a19.707,19.707,0,0,0-2.644,1.983,19.328,19.328,0,0,0-2.512,2.116,21.394,21.394,0,0,0-2.38,2.512,19.709,19.709,0,0,0-1.983,2.645c-.661.926-1.322,1.851-1.851,2.777-.529,1.058-.926,1.983-1.454,3.041a27.686,27.686,0,0,0-1.058,3.041c-.4,1.19-.661,2.248-.926,3.306-.132.529-.132,1.19-.264,1.719s-.133,1.058-.264,1.587c0,1.058-.132,2.248-.132,3.306a14.361,14.361,0,0,0,.132,2.38,15.008,15.008,0,0,0,.4,3.306,27.1,27.1,0,0,0,.661,3.173c.4,1.058.661,2.116,1.058,3.173.264.661.661,1.322.926,1.851l-30.412-11.768c-5.157-1.454-10.181-2.777-15.338-3.967l-8.33-1.983c-7.934-1.587-16-2.777-24.065-3.57-.264,0-.4-.132-.661-.132a236.414,236.414,0,0,0-23.668-1.19c-5.818,0-11.636.264-17.322.661-8.066.529-16.131,1.587-24.2,2.909-1.983.264-3.967.661-5.95,1.058-4.1.793-8.066,1.719-11.9,2.644l-5.95,1.587c-1.983.793-3.834,1.719-5.686,2.512l-4.363,1.983c-.264.132-.529.132-.661.264-1.322.661-2.512,1.19-3.7,1.851a6.443,6.443,0,0,0-.926.4c-1.454.661-2.909,1.454-4.1,2.116-.926.4-1.851.926-2.644,1.322a11.922,11.922,0,0,1-1.19.661c-1.19.661-2.38,1.322-3.438,1.983A33.27,33.27,0,0,0,118,128.822c-.926.661-1.851,1.19-2.644,1.851-.132.132-.264.132-.4.264a30.541,30.541,0,0,0-2.512,1.851l-.264.264-1.983,1.587c-.264.132-.529.4-.793.529-.661.529-1.322,1.19-1.983,1.719-.132.264-.4.4-.529.529-.793.793-1.587,1.454-2.38,2.248-.132,0-.132.132-.264.264-.793.661-1.587,1.454-2.38,2.248-.132.132-.132.264-.264.264-.661.661-1.322,1.322-1.983,2.116-.264.264-.661.529-.926.793-.661.793-1.454,1.587-2.248,2.38-.132.264-.4.4-.529.661-1.058,1.058-1.983,2.116-3.041,3.173l-.4.4a78.043,78.043,0,0,1-6.743,6.479,75.163,75.163,0,0,1-7.4,5.818c-2.645,1.851-5.157,3.438-7.933,5.025a80.58,80.58,0,0,1-8.33,3.967c-2.777,1.19-5.686,2.248-8.595,3.173-5.553,1.19-11.239,3.438-16.131,3.835a28.134,28.134,0,0,0-3.306.4c-1.19.264-2.248.529-3.306.793l-3.173,1.19a33.809,33.809,0,0,0-3.173,1.454c-.926.661-1.983,1.19-2.909,1.851a21.579,21.579,0,0,0-2.644,2.248,22.642,22.642,0,0,0-2.644,2.38c-.793.926-1.587,1.719-2.248,2.645-.661,1.058-1.454,1.983-1.983,3.041a23.294,23.294,0,0,0-1.851,3.041c-.529,1.19-1.058,2.248-1.454,3.438-.4,1.058-.793,2.248-1.19,3.438a27.077,27.077,0,0,0-.661,3.173c0,.133-.132.264-.132.4-.264,1.19-.264,2.777-.4,3.57a17.89,17.89,0,0,0-.264,2.644,7.527,7.527,0,0,0,.132,1.719,14.025,14.025,0,0,0,.529,2.512,17.669,17.669,0,0,0,.926,2.38v.132a23,23,0,0,0,1.454,2.38,26.864,26.864,0,0,0,1.719,2.38c.661.661,1.454,1.454,2.248,2.116a19.334,19.334,0,0,0,2.512,2.116c3.173,2.777,3.967,3.7,8.066,5.818.661.4,1.322.661,2.116,1.058.132,0,.264.132.4.132a1.191,1.191,0,0,0,.132.661,27.128,27.128,0,0,0,.661,3.173,17.822,17.822,0,0,0,1.058,3.173c.4.793.661,1.587,1.058,2.38a2.889,2.889,0,0,0,.4.661c.529,1.058,1.058,1.983,1.587,2.909l1.983,2.777c.661.793,1.454,1.719,2.248,2.512s1.587,1.455,2.512,2.248a.462.462,0,0,0,.264.133,29.02,29.02,0,0,0,2.38,1.851,21.042,21.042,0,0,0,2.909,1.719,21.492,21.492,0,0,0,3.041,1.454,15.554,15.554,0,0,0,2.644.926c.132.133.264.133.529.264.529.133,1.19.264,1.719.4-.4,7.14-.529,13.884.529,16.264,1.19,2.644,7.008-5.421,12.826-14.677-.793,9.124-1.322,19.834,0,23.007,1.454,3.306,9.388-7.008,16.264-18.379,93.747-21.685,179.3,43.105,188.288,134.6-1.719-14.28-19.3-22.214-27.37-20.23-3.967,9.785-10.71,22.346-21.553,30.147a84.781,84.781,0,0,0-1.322-26.445,85.515,85.515,0,0,1-16.4,33.321h0c-12.561.926-25.123-5.157-31.734-14.28-.529-.4-.661-1.19-1.058-1.719a23.836,23.836,0,0,1-1.058-2.777A10.977,10.977,0,0,1,167.85,402a20.439,20.439,0,0,1-.132-2.909v-1.983a21.171,21.171,0,0,1,.661-2.777,22.786,22.786,0,0,1,.926-2.777,29.743,29.743,0,0,1,1.587-2.777c2.248-6.347,2.248-11.5-1.851-14.545a15.056,15.056,0,0,0-2.512-1.322c-.529-.132-1.19-.4-1.719-.529-.4-.132-.661-.264-1.058-.4a21.132,21.132,0,0,0-2.777-.661,10.073,10.073,0,0,0-2.777-.4,21.556,21.556,0,0,0-2.909-.264c-.661,0-1.322.132-1.983.132a10.325,10.325,0,0,0-2.909.4,20.537,20.537,0,0,0-2.777.529,22.787,22.787,0,0,0-2.777.926c-.926.4-1.719.793-2.645,1.19-.793.4-1.587.926-2.512,1.322-30.808,20.1-12.429,67.17,8.595,80.789-7.934,1.454-16,3.173-18.247,4.892l-.264.264a124.591,124.591,0,0,0,17.85,8.859c8.462,2.777,17.454,5.289,21.42,6.347v.132a127.919,127.919,0,0,0,33.321,2.38c58.576-4.1,106.573-48.659,115.3-107.367.264,1.19.529,2.248.793,3.438h0c.4,2.38.926,4.892,1.19,7.4v.133c.264,1.19.4,2.38.529,3.438v.529a32.47,32.47,0,0,1,.264,3.438c.132,1.454.264,2.909.264,4.363v2.116c0,.661.132,1.454.132,2.116,0,.793-.132,1.587-.132,2.38v1.851c0,.926-.133,1.719-.133,2.645a8.123,8.123,0,0,1-.132,1.719c0,.926-.132,1.851-.132,2.909a3.651,3.651,0,0,0-.133,1.19c-.132,1.058-.264,1.983-.4,3.041a3.657,3.657,0,0,1-.132,1.19c-.133,1.322-.4,2.512-.529,3.834v.265c-.264,1.19-.529,2.512-.793,3.7v.4q-.4,1.785-.793,3.57c0,.133-.132.4-.132.529a35.494,35.494,0,0,1-.926,3.57v.4c-.4,1.322-.793,2.512-1.058,3.7a.409.409,0,0,0-.132.264l-1.19,3.967c-.529,1.322-.926,2.512-1.454,3.835s-.926,2.645-1.454,3.835c-.529,1.322-1.058,2.512-1.587,3.835h-.133c-.529,1.19-1.058,2.512-1.719,3.7h0a6.444,6.444,0,0,1-.4.926c-.132.133-.132.264-.264.4a125.153,125.153,0,0,1-37.155,44.427h0c-1.058.661-2.116,1.454-3.173,2.248h0c-.264.264-.661.4-.926.661-.926.661-1.851,1.322-2.909,1.983l.4.793h.132L269,505.4h.132c3.438-.529,6.876-1.19,10.314-1.851a23.072,23.072,0,0,0,2.909-.661c.661-.133,1.19-.264,1.851-.4.926-.133,1.851-.4,2.777-.529.793-.264,1.587-.4,2.38-.661a250.589,250.589,0,0,0,38.345-12.694A211.756,211.756,0,0,1,245.6,555.645a217.555,217.555,0,0,0,45.089-7.8,211.259,211.259,0,0,0,124.952-99.83,211.055,211.055,0,0,1-35.568,85.021A207.789,207.789,0,0,0,471.04,391.289a210.555,210.555,0,0,1,3.835,63.732c95.466-133.15,7.933-271.193-28.693-307.555-.133-.264-.264-.4-.264-.661-.133.132-.133.132-.133.264,0-.132,0-.132-.132-.264,0,1.587-.132,3.173-.264,4.76-.4,3.041-.793,5.95-1.322,8.859-.661,2.909-1.454,5.818-2.248,8.727-.926,2.777-1.983,5.686-3.173,8.462-1.19,2.644-2.512,5.421-3.967,8.066-1.454,2.512-3.041,5.157-4.76,7.537-1.719,2.512-3.57,4.892-5.421,7.14-1.983,2.38-4.1,4.5-6.215,6.611-1.322,1.19-2.512,2.248-3.835,3.306-1.058.926-1.983,1.719-3.041,2.645a73.79,73.79,0,0,1-7.4,5.157c-2.512,1.587-5.157,3.173-7.8,4.5-2.777,1.322-5.553,2.512-8.33,3.7-2.777,1.058-5.686,1.983-8.595,2.777s-5.95,1.454-8.859,1.983c-3.041.529-6.082.793-8.991,1.058-2.116.132-4.231.264-6.347.264-3.041,0-6.082-.264-8.991-.529a88.988,88.988,0,0,1-17.85-3.57H328.1c2.909-.264,5.818-.529,8.727-1.058,3.041-.529,5.95-1.19,8.859-1.983s5.818-1.719,8.595-2.777a79.4,79.4,0,0,0,8.33-3.7c2.777-1.322,5.289-2.777,7.933-4.363,2.512-1.719,5.025-3.438,7.4-5.289a72.3,72.3,0,0,0,6.743-5.95,71.92,71.92,0,0,0,6.215-6.479q2.975-3.57,5.553-7.14c.264-.4.529-.926.793-1.322,1.322-2.116,2.644-4.231,3.834-6.347,1.454-2.644,2.777-5.289,3.967-8.066s2.248-5.553,3.173-8.462c.926-2.777,1.587-5.686,2.248-8.595.529-3.041,1.058-5.95,1.322-8.859.264-3.041.529-6.082.529-8.991,0-2.116-.133-4.231-.264-6.347-.264-3.041-.661-5.95-1.058-8.859-.529-3.041-1.19-5.95-1.983-8.859-.926-2.777-1.851-5.686-2.909-8.462s-2.38-5.553-3.7-8.2c-1.454-2.644-2.909-5.289-4.5-7.8-1.719-2.512-3.438-4.892-5.289-7.272-1.983-2.248-3.967-4.5-6.082-6.743-1.058-1.058-2.248-2.248-3.438-3.306-5.95-4.628-12.165-8.991-18.379-12.958a24.617,24.617,0,0,0-2.645-1.322,51.522,51.522,0,0,0-12.561-5.553Z" transform="translate(0 -209.075)" fill="#e0234e" fill-rule="evenodd"/>
    </g>
  </g>
</svg>
