<svg xmlns="http://www.w3.org/2000/svg" width="159.085" height="92.537" viewBox="0 0 159.085 92.537"><g transform="translate(-45 -104.43)"><path d="M1.139,29.927c.482-.129.684-.561.934-.914q3.744-5.286,7.461-10.591,5.073-7.22,10.14-14.445c.556-.793,1.073-1.612,1.635-2.4A1.557,1.557,0,0,1,22.873.906a11.673,11.673,0,0,1,1.731.426c2.06.653,4.11,1.344,6.173,1.99,1.066.334,2.145.63,3.23.9A5.3,5.3,0,0,1,37.35,6.64c.717,1.131,1.509,2.217,2.32,3.283a13.138,13.138,0,0,0,1.515,1.629,8.776,8.776,0,0,1,1.946,2.414,18.934,18.934,0,0,0,1.749,2.584c.978,1.315,2,2.6,3,3.9q2.584,3.371,5.161,6.747a8.454,8.454,0,0,1,.853,1.3,1.536,1.536,0,0,1-.988,2.14,9.8,9.8,0,0,1-1.542.241c-1.63.169-3.262.311-4.892.48-1.016.105-1.27.336-1.405,1.39a17.961,17.961,0,0,0-.162,2.449,110.608,110.608,0,0,0,1.33,16.241c1.037,6.562,2.486,13.026,4.128,19.454.166.65.331,1.3.445,1.96a2.376,2.376,0,0,1-1.3,2.613,10.981,10.981,0,0,1-1.644.695q-6.593,2.481-13.187,4.953c-1.116.421-2.215.884-3.321,1.33a4.231,4.231,0,0,1-3.045.2,4.151,4.151,0,0,0-2.849-.12l-7.236-2.351a1.393,1.393,0,0,0-1.007-1.1,3.592,3.592,0,0,1-1.984-2.016c-.576-1.21-1.152-2.423-1.631-3.673-1.663-4.349-2.3-8.929-2.945-13.5-.187-1.326-.247-2.669-.413-4-.462-3.7-.62-7.42-.738-11.137-.128-4.015-.241-8.037-.036-12.056.019-.371,0-.745-.011-1.117-.012-.456-.28-.708-.706-.607-1.158.275-2.31.576-3.465.869-.938.238-1.873.492-2.814.715a1.476,1.476,0,0,1-1.424-.455c-.159-.156-.31-.321-.463-.481ZM4.375,29.4c.071.166.082.25.13.291a.277.277,0,0,0,.208.067c.8-.188,1.589-.4,2.389-.577.872-.193,1.746-.4,2.629-.523,1.278-.183,1.84.305,1.88,1.544.007.223.017.447.01.67-.108,3.5-.125,7-.092,10.5.034,3.73.3,7.443.5,11.16.1,1.932.449,3.85.6,5.781a71.7,71.7,0,0,0,1.664,10.14A31.073,31.073,0,0,0,16.727,75.4c.311.631.584.782,1.252.6.861-.228,1.715-.5,2.554-.8,3.226-1.163,6.445-2.346,9.666-3.522q2.625-.959,5.248-1.922A.739.739,0,0,0,36,68.74c-.264-1.009-.583-2-.831-3.017a201.749,201.749,0,0,1-4.179-21.272,71.035,71.035,0,0,1-.8-14.708c.072-.964.192-1.925.312-2.885a1.61,1.61,0,0,1,1.269-1.4,9.715,9.715,0,0,1,1.536-.237c1.111-.123,2.227-.2,3.333-.355a3.6,3.6,0,0,0,1.724-.384c.075-.695-.561-.972-.877-1.421-1.068-1.526-2.193-3.013-3.32-4.5Q31.6,15.178,29,11.821q-2.73-3.544-5.474-7.076a11.1,11.1,0,0,0-.751-.818.238.238,0,0,0-.392.017c-.288.338-.591.667-.846,1.029q-4.885,6.948-9.758,13.9c-2.014,2.863-4.047,5.712-6.067,8.571C5.245,28.107,4.8,28.782,4.375,29.4ZM36.847,76.933a2.353,2.353,0,0,0-.312-.1,3.059,3.059,0,0,0-.391-.035,2.133,2.133,0,0,0,.294.292c.245.166.5.318.76.462a.22.22,0,0,0,.2-.024c.128-.111.109-.242-.048-.341C37.224,77.111,37.086,77.054,36.847,76.933Zm0-48.794c.274.089.412.141.554.176.042.01.132-.018.138-.044.075-.288.045.068-.161-.143a2.348,2.348,0,0,0-1.264-.837.653.653,0,0,0-.211.04c.035.112.035.277.111.327C36.318,27.86,36.646,28.027,36.846,28.14Zm-8.139,48.8a3.1,3.1,0,0,0,.6.08c.093-.249-.159-.291-.293-.394a5.655,5.655,0,0,0-1.915-1.09c-.116-.032-.264.05-.4.08.069.124.107.3.213.365C27.559,76.346,28.215,76.682,28.706,76.942Zm16.037-3.079c-.472-.153-.75-.255-1.035-.329a.878.878,0,0,0-.311.037.685.685,0,0,0,.137.161c.559.341.986.924,1.7.971.1.007.223-.131.314-.224a.2.2,0,0,0-.019-.188C45.215,74.108,44.89,73.941,44.743,73.863ZM21.179,78.316c.76.247,1.033.343,1.312.421.062.017.14-.026.211-.04-.037-.117-.039-.276-.119-.343a8.5,8.5,0,0,0-1.037-.778,1.694,1.694,0,0,0-.627-.125c-.2-.027-.548.226-.49.347s.116.259.215.305A3.575,3.575,0,0,0,21.179,78.316Zm15.93-24.1a5.69,5.69,0,0,0,.638.2,1.277,1.277,0,0,0,.328-.031c-.044-.055-.076-.13-.133-.164-.872-.52-1.743-1.04-2.627-1.541-.059-.033-.217.084-.313.154a.22.22,0,0,0,.046.185C35.8,53.462,36.551,53.9,37.109,54.216ZM33.609,7.1c.276.149.666.366,1.061.573.236.124.561.041.522-.123-.031-.133-.085-.321-.184-.368a12.081,12.081,0,0,0-1.436-.6,4.339,4.339,0,0,0-1.708-.437c.33.522.958.518,1.422.8C33.349,6.989,33.421,7.012,33.609,7.1Zm7.143,64.1.015-.035c.4.166.806.34,1.217.489.086.031.208-.033.313-.053-.034-.063-.052-.146-.1-.188a9.848,9.848,0,0,0-2.585-1.587.385.385,0,0,0-.515.232c-.136.283.1.419.268.508C39.813,70.8,40.287,70.991,40.753,71.2Zm2.469-7.689c.008,0-.195-.084-.4-.149a3.6,3.6,0,0,0-.429-.08c.072.089.127.208.22.264q1.693,1.023,3.4,2.025a1.021,1.021,0,0,0,.42.078.392.392,0,0,0,.2-.054.976.976,0,0,0-.082-.409.778.778,0,0,0-.322-.279C45.3,64.465,44.362,64.037,43.222,63.51ZM30.263,7.762a3.073,3.073,0,0,0,.471.147,1.288,1.288,0,0,0,.343-.043.715.715,0,0,0-.105-.19A9.415,9.415,0,0,0,27.712,5.8a.316.316,0,0,0-.211.019.217.217,0,0,0-.117.131.258.258,0,0,0,.03.206A15.309,15.309,0,0,0,30.263,7.762ZM34.92,42.754l.01-.028c.488.159.975.32,1.466.472.054.017.128-.028.193-.043-.021-.071-.019-.173-.066-.207-.357-.26-.711-.528-1.091-.753-.693-.412-1.4-.8-2.108-1.187-.132-.073-.446.208-.438.378a.752.752,0,0,0,.387.731C33.813,42.35,34.37,42.544,34.92,42.754Zm6.481.721c-.9-.291-1.462-.479-2.031-.655a.281.281,0,0,0-.213.042.19.19,0,0,0,.012.176q1.692,1.064,3.394,2.113a.8.8,0,0,0,.215.051c.145.038.424-.282.383-.461-.065-.287-.107-.608-.422-.74C42.191,43.771,41.632,43.565,41.4,43.475ZM34.566,32.257l.01-.03c.627.2,1.254.41,1.883.607.056.018.129-.016.194-.027-.019-.071-.015-.178-.061-.207q-1.857-1.176-3.724-2.335a.267.267,0,0,0-.209-.044c-.117.063-.28.146-.308.252-.172.633.017,1.054.542,1.236C33.446,31.9,34.008,32.076,34.566,32.257Zm5.484-1.791c-.419-.136-.909-.3-1.4-.452a3.163,3.163,0,0,0-.413-.072,1.257,1.257,0,0,0,.253.331q1.949,1.253,3.916,2.476a.4.4,0,0,0,.384-.08.911.911,0,0,0,.155-.594.829.829,0,0,0-.4-.487C41.746,31.2,40.931,30.858,40.05,30.466Zm5.293,32.58a3.153,3.153,0,0,0,.369.071,1.317,1.317,0,0,0,.221-.028c-.018-.13.009-.338-.062-.379-.7-.412-1.4-.828-2.124-1.183A44.509,44.509,0,0,0,38.736,59.1a.591.591,0,0,0-.216.014c.03.1.027.265.095.3,1.288.741,2.573,1.485,3.88,2.191C43.474,62.139,44.482,62.615,45.342,63.047Zm3.371-35.015c.4.132.966.317,1.53.492a.231.231,0,0,0,.206-.049.208.208,0,0,0-.031-.2q-3.836-2.221-7.682-4.426a1.186,1.186,0,0,0-.417-.112c-.2-.029-.254.071-.265.262a1.488,1.488,0,0,0,1.027,1.537Zm-9.891,7.05c-1.137-.425-2.107-.787-3.076-1.152-.138-.052-.27-.121-.407-.177-.182-.074-.3-.038-.293.1a.257.257,0,0,0,.1.19q3.589,2.19,7.186,4.368c.149.09.433-.135.459-.346.144-1.188-.019-1.518-1.006-1.9C40.744,35.77,39.7,35.4,38.822,35.081ZM39.849,46.2l.037-.093c-1.162-.47-2.323-.944-3.489-1.4-.121-.048-.374-.052-.4,0-.112.239.063.433.234.555,2.222,1.591,4.66,2.828,7,4.23.13.078.47-.188.473-.357a1.588,1.588,0,0,0-1.179-1.864C41.635,46.9,40.741,46.555,39.849,46.2Zm-1.018-4.964c1.264.411,2.388.778,3.516,1.137a.206.206,0,0,0,.184-.066c.033-.055.044-.181.009-.212a8.582,8.582,0,0,0-1.012-.846,52.486,52.486,0,0,0-7.069-3.76c-.54-.24-1.09-.458-1.648-.653a.4.4,0,0,0-.334.2,1.423,1.423,0,0,0,.728,1.851C35.122,39.7,37.043,40.49,38.831,41.235Zm7.339,30.019a11.317,11.317,0,0,0,1.319.32c.184.023.392-.144.589-.224a2.749,2.749,0,0,0-.305-.569,2.428,2.428,0,0,0-.536-.393,94.062,94.062,0,0,0-8.814-4.751,2.173,2.173,0,0,0-.634-.155c-.173-.026-.276.082-.271.271a1.816,1.816,0,0,0,.889,1.67A67.527,67.527,0,0,0,46.171,71.254ZM32.81,11.148c-.352-.114-.7-.245-1.058-.333a.408.408,0,0,0-.361.108.484.484,0,0,0-.011.408,2.024,2.024,0,0,0,.921.921c1.186.607,2.379,1.2,3.53,1.872,2.432,1.412,4.837,2.869,7.26,4.3.075.044.223-.027.33-.063a.357.357,0,0,0-.034-.205A7.345,7.345,0,0,0,40.773,15.5c-.653-.339-1.225-.831-1.854-1.221A28.783,28.783,0,0,0,32.81,11.148Z" transform="translate(44.414 114.115)" fill="#ed3542" fill-rule="evenodd"/><path d="M15.39-4.92a4.1,4.1,0,0,1-.3,1.38A5.921,5.921,0,0,1,12.27-.42,8.577,8.577,0,0,1,8.13.6,6.532,6.532,0,0,1,2.46-2.19,10.655,10.655,0,0,1,.75-8.46a17.723,17.723,0,0,1,.99-5.97,11.033,11.033,0,0,1,3.27-4.98,5.449,5.449,0,0,1,3.48-1.41,4.239,4.239,0,0,1,3.87,2.22,8.681,8.681,0,0,1,1.08,4.53,10.041,10.041,0,0,1-.63,3.09Q12.06-8.7,11.13-8.7q-1.05,0-1.59-1.32a10.22,10.22,0,0,0,.84-.69,3.98,3.98,0,0,0,.6-2.58,11.005,11.005,0,0,0-.39-3.15q-.6-1.95-1.98-1.95a3.1,3.1,0,0,0-2.1,1.23,9.474,9.474,0,0,0-1.47,2.07A15.676,15.676,0,0,0,3.57-7.92q0,6.24,4.68,6.24a4.362,4.362,0,0,0,3.18-1.14,13.046,13.046,0,0,0,1.41-2.13q.63-1.17,1.35-1.17a1.13,1.13,0,0,1,.84.375A1.169,1.169,0,0,1,15.39-4.92Zm12.78-.99a7.827,7.827,0,0,1-1.35,4.62A4.847,4.847,0,0,1,22.68.9,4.674,4.674,0,0,1,18.69-.9a6.888,6.888,0,0,1-1.23-4.32,10.243,10.243,0,0,1,1.35-5.1q1.56-2.85,4.05-2.85a4.093,4.093,0,0,1,1.95.69Q28.17-10.47,28.17-5.91Zm-2.64-.06q0-4.59-2.22-4.59-1.59,0-2.4,1.95a8.746,8.746,0,0,0-.6,3.33q0,3.99,2.37,3.99a2.425,2.425,0,0,0,2.28-1.65A7.315,7.315,0,0,0,25.53-5.97ZM40.77-.21a1.307,1.307,0,0,1-1.11.69,4.439,4.439,0,0,1-1.68-.6V-.48q0-.66.045-1.95t.045-1.89q0-6.42-1.92-6.42-.54,0-1.23.84a9.439,9.439,0,0,0-2.13,6.21,8.721,8.721,0,0,0,.195,1.515A8.721,8.721,0,0,1,33.18-.66a.811.811,0,0,1-.39.69,1.448,1.448,0,0,1-.84.27q-1.8,0-1.8-2.28V-8.25a5.994,5.994,0,0,1,.06-.7,5.994,5.994,0,0,0,.06-.7,7.581,7.581,0,0,0-.1-1.05,7.536,7.536,0,0,1-.1-1.02,1.2,1.2,0,0,1,.555-.915,1.7,1.7,0,0,1,1-.435,1.913,1.913,0,0,1,1.35.75l-.09,1.2a3.206,3.206,0,0,1,2.73-1.77,4.264,4.264,0,0,1,2.22.72,4.966,4.966,0,0,1,1.71,1.62,12.63,12.63,0,0,1,1.23,6Zm8.16-10.53q0,.81-2.49,1.14-.06.66-.06,3v1.98a11.754,11.754,0,0,0,.195,1.77,11.714,11.714,0,0,1,.195,1.74,1.077,1.077,0,0,1-.48.855,1.558,1.558,0,0,1-.96.375q-.75,0-1.26-1.29a5.224,5.224,0,0,1-.39-1.92V-9.45q-1.38-.21-1.59-.27-.78-.24-.78-.69a.737.737,0,0,1,.06-.27,2.171,2.171,0,0,1,1.74-1.11h.18a.821.821,0,0,0,.18.03q.63,0,.6-1.47v-2.19a1.238,1.238,0,0,1-.18-.57.875.875,0,0,1,.465-.7,1.592,1.592,0,0,1,.885-.315,1.674,1.674,0,0,1,1.2.585,1.769,1.769,0,0,1,.57,1.245,4.661,4.661,0,0,1-.225,1.425A4.2,4.2,0,0,0,46.59-12.3v.12Q48.93-11.94,48.93-10.74Zm10.56,8.1q0,1.5-2.04,2.34a8.6,8.6,0,0,1-3.33.66Q49.5.36,49.5-4.89a13.127,13.127,0,0,1,1.05-4.8q1.29-3.24,3.12-3.24a5.966,5.966,0,0,1,3.555,1.47,4.021,4.021,0,0,1,1.9,3.06,3.606,3.606,0,0,1-1.77,3.15A6.5,6.5,0,0,1,53.64-4.2a3.367,3.367,0,0,1-1.35-.51q.12,2.85,1.68,2.85a5.064,5.064,0,0,0,2.595-.75A4.89,4.89,0,0,1,58.2-3.36Q59.49-3.36,59.49-2.64ZM56.22-8.31a2.588,2.588,0,0,0-.435-1.425,1.321,1.321,0,0,0-1.155-.675,1.7,1.7,0,0,0-1.53.87,3.375,3.375,0,0,0-.45,1.77,1.208,1.208,0,0,0,.39.93,1.4,1.4,0,0,0,.99.36Q56.22-6.48,56.22-8.31Zm14.61-3.3q0,1.08-.225,3.255T70.38-5.07q0,.84.075,2.505T70.53-.09q0,.69-1.17.69A1.455,1.455,0,0,1,67.83-.57a4.042,4.042,0,0,1-2.22.75,5.213,5.213,0,0,1-1.98-.465A3.428,3.428,0,0,1,62.07-1.41a7.291,7.291,0,0,1-.87-4.05q0-.96.06-3.36.09-2.13.06-3.33a2.767,2.767,0,0,1,1.5-.66,1.26,1.26,0,0,1,1.44,1.41,11.348,11.348,0,0,1-.135,1.44,11.349,11.349,0,0,0-.135,1.44v4.23a3.352,3.352,0,0,0,.39,1.5q.48.9,1.14.9,1.29,0,1.92-1.65a8.013,8.013,0,0,0,.42-2.76v-4.5a5.338,5.338,0,0,0-.36-1.71,2.188,2.188,0,0,1,1.44-.69,2.088,2.088,0,0,1,1.305.45A1.381,1.381,0,0,1,70.83-11.61ZM69.42-17.1a2.286,2.286,0,0,1-.345.555,1.078,1.078,0,0,1-.435.315q-.15.06-.66.345t-1.38.825a6.293,6.293,0,0,1-2.22.96,1,1,0,0,1-.69-.24.838.838,0,0,1-.24-.72v-.36q.45-.54.93-1.035t.99-1.005q1.56-1.47,2.37-1.47a1.292,1.292,0,0,1,.555.135,2.045,2.045,0,0,1,.525.36,2.824,2.824,0,0,1,.42.495,1.6,1.6,0,0,1,.24.54Zm13.83-1.14a10.566,10.566,0,0,1-.18,1.71q-.24,1.41-.3,1.68-.09.93-.285,5.49T82.29-4.32A11.306,11.306,0,0,0,82.92,0a1.425,1.425,0,0,1-1.17.84A1.717,1.717,0,0,1,80.52.315,1.886,1.886,0,0,1,79.92-.9,4.272,4.272,0,0,1,77.04.39a4.059,4.059,0,0,1-3.39-1.53,5.616,5.616,0,0,1-1.11-3.63,14.529,14.529,0,0,1,1.08-5.37q1.38-3.45,3.6-3.45a4.226,4.226,0,0,1,2.7,1.17q.15-1.41.15-7.2,0-.54.81-.54a2.886,2.886,0,0,1,1.665.48A1.626,1.626,0,0,1,83.25-18.24ZM79.77-8.07a3.876,3.876,0,0,0-.45-1.86,1.7,1.7,0,0,0-1.5-1.02q-1.35,0-2.07,2.67a13.918,13.918,0,0,0-.54,3.78q0,2.79,1.62,2.79,1.68,0,2.43-2.49A13.343,13.343,0,0,0,79.77-8.07ZM95.52-5.91a7.826,7.826,0,0,1-1.35,4.62A4.847,4.847,0,0,1,90.03.9,4.674,4.674,0,0,1,86.04-.9a6.888,6.888,0,0,1-1.23-4.32,10.243,10.243,0,0,1,1.35-5.1q1.56-2.85,4.05-2.85a4.093,4.093,0,0,1,1.95.69Q95.52-10.47,95.52-5.91Zm-2.64-.06q0-4.59-2.22-4.59-1.59,0-2.4,1.95a8.746,8.746,0,0,0-.6,3.33q0,3.99,2.37,3.99a2.425,2.425,0,0,0,2.28-1.65A7.315,7.315,0,0,0,92.88-5.97ZM11.46,35.79a1.307,1.307,0,0,1-1.11.69,4.439,4.439,0,0,1-1.68-.6v-.36q0-.66.045-1.95t.045-1.89q0-6.42-1.92-6.42-.54,0-1.23.84a9.439,9.439,0,0,0-2.13,6.21,8.721,8.721,0,0,0,.2,1.515A8.721,8.721,0,0,1,3.87,35.34a.811.811,0,0,1-.39.69,1.448,1.448,0,0,1-.84.27q-1.8,0-1.8-2.28V27.75a5.994,5.994,0,0,1,.06-.7,5.994,5.994,0,0,0,.06-.7,7.581,7.581,0,0,0-.1-1.05A7.536,7.536,0,0,1,.75,24.27a1.2,1.2,0,0,1,.555-.915,1.7,1.7,0,0,1,1-.435,1.913,1.913,0,0,1,1.35.75l-.09,1.2A3.206,3.206,0,0,1,6.3,23.1a4.264,4.264,0,0,1,2.22.72,4.966,4.966,0,0,1,1.71,1.62,12.63,12.63,0,0,1,1.23,6Zm12.63-5.7a7.827,7.827,0,0,1-1.35,4.62A4.847,4.847,0,0,1,18.6,36.9a4.674,4.674,0,0,1-3.99-1.8,6.888,6.888,0,0,1-1.23-4.32,10.243,10.243,0,0,1,1.35-5.1q1.56-2.85,4.05-2.85a4.093,4.093,0,0,1,1.95.69Q24.09,25.53,24.09,30.09Zm-2.64-.06q0-4.59-2.22-4.59-1.59,0-2.4,1.95a8.746,8.746,0,0,0-.6,3.33q0,3.99,2.37,3.99a2.425,2.425,0,0,0,2.28-1.65A7.315,7.315,0,0,0,21.45,30.03Zm14.04-5.52a24.936,24.936,0,0,1-1.38,6.6q-1.62,5.1-3.15,5.1-2.19,0-3.9-4.29a34.048,34.048,0,0,1-1.71-6.24,8.523,8.523,0,0,1-.15-1.35,1.109,1.109,0,0,1,.435-.855,1.385,1.385,0,0,1,.915-.375,3.714,3.714,0,0,1,1.77.87,4.144,4.144,0,0,0-.21,1.17,15.293,15.293,0,0,0,.795,4.23A14.18,14.18,0,0,0,30.63,33.3v.09q1.08,0,1.68-4.08a34.491,34.491,0,0,0,.42-5.1.948.948,0,0,1,.465-.78,1.581,1.581,0,0,1,.915-.33A1.233,1.233,0,0,1,35.49,24.51Zm11.79,5.58a7.827,7.827,0,0,1-1.35,4.62,4.847,4.847,0,0,1-4.14,2.19,4.674,4.674,0,0,1-3.99-1.8,6.888,6.888,0,0,1-1.23-4.32,10.243,10.243,0,0,1,1.35-5.1q1.56-2.85,4.05-2.85a4.093,4.093,0,0,1,1.95.69Q47.28,25.53,47.28,30.09Zm-2.64-.06q0-4.59-2.22-4.59-1.59,0-2.4,1.95a8.746,8.746,0,0,0-.6,3.33q0,3.99,2.37,3.99a2.425,2.425,0,0,0,2.28-1.65A7.315,7.315,0,0,0,44.64,30.03ZM55.38,16.98a.858.858,0,0,1-.15.45q-.21.33-.27.42a17.656,17.656,0,0,0-1.02,4.35q-.15.93-.45,4.5a4.285,4.285,0,0,1-.075.585,4.262,4.262,0,0,0-.075.675,8.82,8.82,0,0,0,.33,2.07,6.855,6.855,0,0,1-.6.66,2.73,2.73,0,0,1-.72.09,2.15,2.15,0,0,1-1.11-.3,4.556,4.556,0,0,1-.45-2.16,22.426,22.426,0,0,1,.555-4.095A22.426,22.426,0,0,0,51.9,20.13a10.294,10.294,0,0,0-.195-1.635,10.294,10.294,0,0,1-.195-1.635,1.878,1.878,0,0,1,.06-.51,2.75,2.75,0,0,1,1.83-.63,2.909,2.909,0,0,1,1.26.3A1.125,1.125,0,0,1,55.38,16.98Zm-.87,17.07q0,2.28-2.61,2.28a6.037,6.037,0,0,1-1.83-.57,2.637,2.637,0,0,1-.36-1.26q0-1.74,2.13-1.74a4.559,4.559,0,0,1,1.59.3Q54.51,33.45,54.51,34.05Zm8.94-17.07a.858.858,0,0,1-.15.45q-.21.33-.27.42a17.656,17.656,0,0,0-1.02,4.35q-.15.93-.45,4.5a4.285,4.285,0,0,1-.075.585,4.261,4.261,0,0,0-.075.675,8.82,8.82,0,0,0,.33,2.07,6.855,6.855,0,0,1-.6.66,2.73,2.73,0,0,1-.72.09,2.15,2.15,0,0,1-1.11-.3,4.556,4.556,0,0,1-.45-2.16,22.426,22.426,0,0,1,.555-4.095,22.426,22.426,0,0,0,.555-4.095,10.294,10.294,0,0,0-.195-1.635,10.294,10.294,0,0,1-.195-1.635,1.878,1.878,0,0,1,.06-.51,2.75,2.75,0,0,1,1.83-.63,2.909,2.909,0,0,1,1.26.3A1.125,1.125,0,0,1,63.45,16.98Zm-.87,17.07q0,2.28-2.61,2.28a6.037,6.037,0,0,1-1.83-.57,2.637,2.637,0,0,1-.36-1.26q0-1.74,2.13-1.74a4.559,4.559,0,0,1,1.59.3Q62.58,33.45,62.58,34.05Zm8.94-17.07a.858.858,0,0,1-.15.45q-.21.33-.27.42a17.656,17.656,0,0,0-1.02,4.35q-.15.93-.45,4.5a4.285,4.285,0,0,1-.075.585,4.261,4.261,0,0,0-.075.675,8.82,8.82,0,0,0,.33,2.07,6.856,6.856,0,0,1-.6.66,2.73,2.73,0,0,1-.72.09,2.15,2.15,0,0,1-1.11-.3,4.556,4.556,0,0,1-.45-2.16,22.425,22.425,0,0,1,.555-4.095,22.425,22.425,0,0,0,.555-4.095,10.294,10.294,0,0,0-.195-1.635,10.293,10.293,0,0,1-.2-1.635,1.878,1.878,0,0,1,.06-.51,2.75,2.75,0,0,1,1.83-.63,2.909,2.909,0,0,1,1.26.3A1.125,1.125,0,0,1,71.52,16.98Zm-.87,17.07q0,2.28-2.61,2.28a6.037,6.037,0,0,1-1.83-.57,2.637,2.637,0,0,1-.36-1.26q0-1.74,2.13-1.74a4.559,4.559,0,0,1,1.59.3Q70.65,33.45,70.65,34.05Z" transform="matrix(0.985, -0.174, 0.174, 0.985, 103.608, 141.521)" fill="#ed3542"/></g></svg>