<svg xmlns="http://www.w3.org/2000/svg" xmlns:xlink="http://www.w3.org/1999/xlink" width="500" height="500" viewBox="0 0 500 500">
  <defs>
    <clipPath id="clip-uig">
      <rect width="500" height="500"/>
    </clipPath>
  </defs>
  <g id="uig" clip-path="url(#clip-uig)">
    <path id="Subtração_1" data-name="Subtração 1" d="M229.2,518.113h0L34.939,410.492,0,108.969,229.2,27.5l228.139,81.469L423.18,410.492,229.2,518.113Zm9.951-404.906A179.915,179.915,0,0,0,205.9,116.22a157.634,157.634,0,0,0-30.633,9.036,155.752,155.752,0,0,0-28.019,15.06A180.141,180.141,0,0,0,100.757,186.7,154.887,154.887,0,0,0,85.7,214.618a156.651,156.651,0,0,0-9.036,30.531A178.807,178.807,0,0,0,73.649,278.3a175.634,175.634,0,0,0,2.961,32.53A154.325,154.325,0,0,0,100.3,368.657a176.309,176.309,0,0,0,20.726,25.3,174.263,174.263,0,0,0,24.878,21,152.261,152.261,0,0,0,27.263,15,150.326,150.326,0,0,0,29.647,9,172.4,172.4,0,0,0,64.574-.1,141.8,141.8,0,0,0,29.544-9.306,138.67,138.67,0,0,0,26.545-15.509,156.685,156.685,0,0,0,23.546-21.713A146.61,146.61,0,0,0,363.68,369.35,125.943,125.943,0,0,0,374.7,344.74a184.6,184.6,0,0,0,6.306-29.531,256.358,256.358,0,0,0,2.1-33.633V271.117H252.272V316.03h78.955a83.16,83.16,0,0,1-3.192,16.124,79.864,79.864,0,0,1-6.293,14.945,86.681,86.681,0,0,1-9.4,13.766,104.4,104.4,0,0,1-12.5,12.587,109.043,109.043,0,0,1-14.5,10.407,95.892,95.892,0,0,1-15.393,7.434,92.509,92.509,0,0,1-16.291,4.46,98.551,98.551,0,0,1-17.188,1.487,103.575,103.575,0,0,1-39.939-7.947,118.361,118.361,0,0,1-18.854-9.934,145.5,145.5,0,0,1-18.111-13.907,120.954,120.954,0,0,1-16.6-18.29,108.131,108.131,0,0,1-11.856-20.623,111.481,111.481,0,0,1-7.114-22.956,131.484,131.484,0,0,1-2.371-25.288,138.185,138.185,0,0,1,2.128-24.558,116.726,116.726,0,0,1,6.383-22.4,110.546,110.546,0,0,1,10.638-20.251,118.859,118.859,0,0,1,14.894-18.1,121,121,0,0,1,18.034-15.163,109.654,109.654,0,0,1,20.059-10.831,112.913,112.913,0,0,1,22.085-6.5,131.184,131.184,0,0,1,24.11-2.166,110.831,110.831,0,0,1,26.929,3.243,105.066,105.066,0,0,1,24.8,9.728,120.217,120.217,0,0,1,22.674,16.214,159.08,159.08,0,0,1,20.546,22.7L368.961,177.6a248.972,248.972,0,0,0-29.993-29.326,163.2,163.2,0,0,0-30.505-19.892A157.55,157.55,0,0,0,275.035,117,168.127,168.127,0,0,0,239.146,113.207Z" transform="translate(21.5 -27)" stroke="#707070" stroke-width="1"/>
  </g>
</svg>
