<svg xmlns="http://www.w3.org/2000/svg" width="53.458" height="81.967" viewBox="0 0 53.458 81.967">
  <path id="call-to-action" d="M1.139,29.927c.482-.129.684-.561.934-.914q3.744-5.286,7.461-10.591,5.073-7.22,10.14-14.445c.556-.793,1.073-1.612,1.635-2.4A1.557,1.557,0,0,1,22.873.906a11.673,11.673,0,0,1,1.731.426c2.06.653,4.11,1.344,6.173,1.99,1.066.334,2.145.63,3.23.9A5.3,5.3,0,0,1,37.35,6.64c.717,1.131,1.509,2.217,2.32,3.283a13.138,13.138,0,0,0,1.515,1.629,8.776,8.776,0,0,1,1.946,2.414,18.934,18.934,0,0,0,1.749,2.584c.978,1.315,2,2.6,3,3.9q2.584,3.371,5.161,6.747a8.454,8.454,0,0,1,.853,1.3,1.536,1.536,0,0,1-.988,2.14,9.8,9.8,0,0,1-1.542.241c-1.63.169-3.262.311-4.892.48-1.016.105-1.27.336-1.405,1.39a17.961,17.961,0,0,0-.162,2.449,110.608,110.608,0,0,0,1.33,16.241c1.037,6.562,2.486,13.026,4.128,19.454.166.65.331,1.3.445,1.96a2.376,2.376,0,0,1-1.3,2.613,10.981,10.981,0,0,1-1.644.695q-6.593,2.481-13.187,4.953c-1.116.421-2.215.884-3.321,1.33a4.231,4.231,0,0,1-3.045.2,4.151,4.151,0,0,0-2.849-.12l-7.236-2.351a1.393,1.393,0,0,0-1.007-1.1,3.592,3.592,0,0,1-1.984-2.016c-.576-1.21-1.152-2.423-1.631-3.673-1.663-4.349-2.3-8.929-2.945-13.5-.187-1.326-.247-2.669-.413-4-.462-3.7-.62-7.42-.738-11.137-.128-4.015-.241-8.037-.036-12.056.019-.371,0-.745-.011-1.117-.012-.456-.28-.708-.706-.607-1.158.275-2.31.576-3.465.869-.938.238-1.873.492-2.814.715a1.476,1.476,0,0,1-1.424-.455c-.159-.156-.31-.321-.463-.481ZM4.375,29.4c.071.166.082.25.13.291a.277.277,0,0,0,.208.067c.8-.188,1.589-.4,2.389-.577.872-.193,1.746-.4,2.629-.523,1.278-.183,1.84.305,1.88,1.544.007.223.017.447.01.67-.108,3.5-.125,7-.092,10.5.034,3.73.3,7.443.5,11.16.1,1.932.449,3.85.6,5.781a71.7,71.7,0,0,0,1.664,10.14A31.073,31.073,0,0,0,16.727,75.4c.311.631.584.782,1.252.6.861-.228,1.715-.5,2.554-.8,3.226-1.163,6.445-2.346,9.666-3.522q2.625-.959,5.248-1.922A.739.739,0,0,0,36,68.74c-.264-1.009-.583-2-.831-3.017a201.749,201.749,0,0,1-4.179-21.272,71.035,71.035,0,0,1-.8-14.708c.072-.964.192-1.925.312-2.885a1.61,1.61,0,0,1,1.269-1.4,9.715,9.715,0,0,1,1.536-.237c1.111-.123,2.227-.2,3.333-.355a3.6,3.6,0,0,0,1.724-.384c.075-.695-.561-.972-.877-1.421-1.068-1.526-2.193-3.013-3.32-4.5Q31.6,15.178,29,11.821q-2.73-3.544-5.474-7.076a11.1,11.1,0,0,0-.751-.818.238.238,0,0,0-.392.017c-.288.338-.591.667-.846,1.029q-4.885,6.948-9.758,13.9c-2.014,2.863-4.047,5.712-6.067,8.571C5.245,28.107,4.8,28.782,4.375,29.4ZM36.847,76.933a2.353,2.353,0,0,0-.312-.1,3.059,3.059,0,0,0-.391-.035,2.133,2.133,0,0,0,.294.292c.245.166.5.318.76.462a.22.22,0,0,0,.2-.024c.128-.111.109-.242-.048-.341C37.224,77.111,37.086,77.054,36.847,76.933Zm0-48.794c.274.089.412.141.554.176.042.01.132-.018.138-.044.075-.288.045.068-.161-.143a2.348,2.348,0,0,0-1.264-.837.653.653,0,0,0-.211.04c.035.112.035.277.111.327C36.318,27.86,36.646,28.027,36.846,28.14Zm-8.139,48.8a3.1,3.1,0,0,0,.6.08c.093-.249-.159-.291-.293-.394a5.655,5.655,0,0,0-1.915-1.09c-.116-.032-.264.05-.4.08.069.124.107.3.213.365C27.559,76.346,28.215,76.682,28.706,76.942Zm16.037-3.079c-.472-.153-.75-.255-1.035-.329a.878.878,0,0,0-.311.037.685.685,0,0,0,.137.161c.559.341.986.924,1.7.971.1.007.223-.131.314-.224a.2.2,0,0,0-.019-.188C45.215,74.108,44.89,73.941,44.743,73.863ZM21.179,78.316c.76.247,1.033.343,1.312.421.062.017.14-.026.211-.04-.037-.117-.039-.276-.119-.343a8.5,8.5,0,0,0-1.037-.778,1.694,1.694,0,0,0-.627-.125c-.2-.027-.548.226-.49.347s.116.259.215.305A3.575,3.575,0,0,0,21.179,78.316Zm15.93-24.1a5.69,5.69,0,0,0,.638.2,1.277,1.277,0,0,0,.328-.031c-.044-.055-.076-.13-.133-.164-.872-.52-1.743-1.04-2.627-1.541-.059-.033-.217.084-.313.154a.22.22,0,0,0,.046.185C35.8,53.462,36.551,53.9,37.109,54.216ZM33.609,7.1c.276.149.666.366,1.061.573.236.124.561.041.522-.123-.031-.133-.085-.321-.184-.368a12.081,12.081,0,0,0-1.436-.6,4.339,4.339,0,0,0-1.708-.437c.33.522.958.518,1.422.8C33.349,6.989,33.421,7.012,33.609,7.1Zm7.143,64.1.015-.035c.4.166.806.34,1.217.489.086.031.208-.033.313-.053-.034-.063-.052-.146-.1-.188a9.848,9.848,0,0,0-2.585-1.587.385.385,0,0,0-.515.232c-.136.283.1.419.268.508C39.813,70.8,40.287,70.991,40.753,71.2Zm2.469-7.689c.008,0-.195-.084-.4-.149a3.6,3.6,0,0,0-.429-.08c.072.089.127.208.22.264q1.693,1.023,3.4,2.025a1.021,1.021,0,0,0,.42.078.392.392,0,0,0,.2-.054.976.976,0,0,0-.082-.409.778.778,0,0,0-.322-.279C45.3,64.465,44.362,64.037,43.222,63.51ZM30.263,7.762a3.073,3.073,0,0,0,.471.147,1.288,1.288,0,0,0,.343-.043.715.715,0,0,0-.105-.19A9.415,9.415,0,0,0,27.712,5.8a.316.316,0,0,0-.211.019.217.217,0,0,0-.117.131.258.258,0,0,0,.03.206A15.309,15.309,0,0,0,30.263,7.762ZM34.92,42.754l.01-.028c.488.159.975.32,1.466.472.054.017.128-.028.193-.043-.021-.071-.019-.173-.066-.207-.357-.26-.711-.528-1.091-.753-.693-.412-1.4-.8-2.108-1.187-.132-.073-.446.208-.438.378a.752.752,0,0,0,.387.731C33.813,42.35,34.37,42.544,34.92,42.754Zm6.481.721c-.9-.291-1.462-.479-2.031-.655a.281.281,0,0,0-.213.042.19.19,0,0,0,.012.176q1.692,1.064,3.394,2.113a.8.8,0,0,0,.215.051c.145.038.424-.282.383-.461-.065-.287-.107-.608-.422-.74C42.191,43.771,41.632,43.565,41.4,43.475ZM34.566,32.257l.01-.03c.627.2,1.254.41,1.883.607.056.018.129-.016.194-.027-.019-.071-.015-.178-.061-.207q-1.857-1.176-3.724-2.335a.267.267,0,0,0-.209-.044c-.117.063-.28.146-.308.252-.172.633.017,1.054.542,1.236C33.446,31.9,34.008,32.076,34.566,32.257Zm5.484-1.791c-.419-.136-.909-.3-1.4-.452a3.163,3.163,0,0,0-.413-.072,1.257,1.257,0,0,0,.253.331q1.949,1.253,3.916,2.476a.4.4,0,0,0,.384-.08.911.911,0,0,0,.155-.594.829.829,0,0,0-.4-.487C41.746,31.2,40.931,30.858,40.05,30.466Zm5.293,32.58a3.153,3.153,0,0,0,.369.071,1.317,1.317,0,0,0,.221-.028c-.018-.13.009-.338-.062-.379-.7-.412-1.4-.828-2.124-1.183A44.509,44.509,0,0,0,38.736,59.1a.591.591,0,0,0-.216.014c.03.1.027.265.095.3,1.288.741,2.573,1.485,3.88,2.191C43.474,62.139,44.482,62.615,45.342,63.047Zm3.371-35.015c.4.132.966.317,1.53.492a.231.231,0,0,0,.206-.049.208.208,0,0,0-.031-.2q-3.836-2.221-7.682-4.426a1.186,1.186,0,0,0-.417-.112c-.2-.029-.254.071-.265.262a1.488,1.488,0,0,0,1.027,1.537Zm-9.891,7.05c-1.137-.425-2.107-.787-3.076-1.152-.138-.052-.27-.121-.407-.177-.182-.074-.3-.038-.293.1a.257.257,0,0,0,.1.19q3.589,2.19,7.186,4.368c.149.09.433-.135.459-.346.144-1.188-.019-1.518-1.006-1.9C40.744,35.77,39.7,35.4,38.822,35.081ZM39.849,46.2l.037-.093c-1.162-.47-2.323-.944-3.489-1.4-.121-.048-.374-.052-.4,0-.112.239.063.433.234.555,2.222,1.591,4.66,2.828,7,4.23.13.078.47-.188.473-.357a1.588,1.588,0,0,0-1.179-1.864C41.635,46.9,40.741,46.555,39.849,46.2Zm-1.018-4.964c1.264.411,2.388.778,3.516,1.137a.206.206,0,0,0,.184-.066c.033-.055.044-.181.009-.212a8.582,8.582,0,0,0-1.012-.846,52.486,52.486,0,0,0-7.069-3.76c-.54-.24-1.09-.458-1.648-.653a.4.4,0,0,0-.334.2,1.423,1.423,0,0,0,.728,1.851C35.122,39.7,37.043,40.49,38.831,41.235Zm7.339,30.019a11.317,11.317,0,0,0,1.319.32c.184.023.392-.144.589-.224a2.749,2.749,0,0,0-.305-.569,2.428,2.428,0,0,0-.536-.393,94.062,94.062,0,0,0-8.814-4.751,2.173,2.173,0,0,0-.634-.155c-.173-.026-.276.082-.271.271a1.816,1.816,0,0,0,.889,1.67A67.527,67.527,0,0,0,46.171,71.254ZM32.81,11.148c-.352-.114-.7-.245-1.058-.333a.408.408,0,0,0-.361.108.484.484,0,0,0-.011.408,2.024,2.024,0,0,0,.921.921c1.186.607,2.379,1.2,3.53,1.872,2.432,1.412,4.837,2.869,7.26,4.3.075.044.223-.027.33-.063a.357.357,0,0,0-.034-.205A7.345,7.345,0,0,0,40.773,15.5c-.653-.339-1.225-.831-1.854-1.221A28.783,28.783,0,0,0,32.81,11.148Z" transform="translate(-0.586 -0.885)" fill="#ed3542" fill-rule="evenodd"/>
</svg>
