<svg xmlns="http://www.w3.org/2000/svg" width="250.683" height="95.6" viewBox="0 0 250.683 95.6">
  <g id="Grupo_1" data-name="Grupo 1" transform="translate(-45 -101.368)">
    <path id="call-to-action" d="M1.139,29.927c.482-.129.684-.561.934-.914q3.744-5.286,7.461-10.591,5.073-7.22,10.14-14.445c.556-.793,1.073-1.612,1.635-2.4A1.557,1.557,0,0,1,22.873.906a11.673,11.673,0,0,1,1.731.426c2.06.653,4.11,1.344,6.173,1.99,1.066.334,2.145.63,3.23.9A5.3,5.3,0,0,1,37.35,6.64c.717,1.131,1.509,2.217,2.32,3.283a13.138,13.138,0,0,0,1.515,1.629,8.776,8.776,0,0,1,1.946,2.414,18.934,18.934,0,0,0,1.749,2.584c.978,1.315,2,2.6,3,3.9q2.584,3.371,5.161,6.747a8.454,8.454,0,0,1,.853,1.3,1.536,1.536,0,0,1-.988,2.14,9.8,9.8,0,0,1-1.542.241c-1.63.169-3.262.311-4.892.48-1.016.105-1.27.336-1.405,1.39a17.961,17.961,0,0,0-.162,2.449,110.608,110.608,0,0,0,1.33,16.241c1.037,6.562,2.486,13.026,4.128,19.454.166.65.331,1.3.445,1.96a2.376,2.376,0,0,1-1.3,2.613,10.981,10.981,0,0,1-1.644.695q-6.593,2.481-13.187,4.953c-1.116.421-2.215.884-3.321,1.33a4.231,4.231,0,0,1-3.045.2,4.151,4.151,0,0,0-2.849-.12l-7.236-2.351a1.393,1.393,0,0,0-1.007-1.1,3.592,3.592,0,0,1-1.984-2.016c-.576-1.21-1.152-2.423-1.631-3.673-1.663-4.349-2.3-8.929-2.945-13.5-.187-1.326-.247-2.669-.413-4-.462-3.7-.62-7.42-.738-11.137-.128-4.015-.241-8.037-.036-12.056.019-.371,0-.745-.011-1.117-.012-.456-.28-.708-.706-.607-1.158.275-2.31.576-3.465.869-.938.238-1.873.492-2.814.715a1.476,1.476,0,0,1-1.424-.455c-.159-.156-.31-.321-.463-.481ZM4.375,29.4c.071.166.082.25.13.291a.277.277,0,0,0,.208.067c.8-.188,1.589-.4,2.389-.577.872-.193,1.746-.4,2.629-.523,1.278-.183,1.84.305,1.88,1.544.007.223.017.447.01.67-.108,3.5-.125,7-.092,10.5.034,3.73.3,7.443.5,11.16.1,1.932.449,3.85.6,5.781a71.7,71.7,0,0,0,1.664,10.14A31.073,31.073,0,0,0,16.727,75.4c.311.631.584.782,1.252.6.861-.228,1.715-.5,2.554-.8,3.226-1.163,6.445-2.346,9.666-3.522q2.625-.959,5.248-1.922A.739.739,0,0,0,36,68.74c-.264-1.009-.583-2-.831-3.017a201.749,201.749,0,0,1-4.179-21.272,71.035,71.035,0,0,1-.8-14.708c.072-.964.192-1.925.312-2.885a1.61,1.61,0,0,1,1.269-1.4,9.715,9.715,0,0,1,1.536-.237c1.111-.123,2.227-.2,3.333-.355a3.6,3.6,0,0,0,1.724-.384c.075-.695-.561-.972-.877-1.421-1.068-1.526-2.193-3.013-3.32-4.5Q31.6,15.178,29,11.821q-2.73-3.544-5.474-7.076a11.1,11.1,0,0,0-.751-.818.238.238,0,0,0-.392.017c-.288.338-.591.667-.846,1.029q-4.885,6.948-9.758,13.9c-2.014,2.863-4.047,5.712-6.067,8.571C5.245,28.107,4.8,28.782,4.375,29.4ZM36.847,76.933a2.353,2.353,0,0,0-.312-.1,3.059,3.059,0,0,0-.391-.035,2.133,2.133,0,0,0,.294.292c.245.166.5.318.76.462a.22.22,0,0,0,.2-.024c.128-.111.109-.242-.048-.341C37.224,77.111,37.086,77.054,36.847,76.933Zm0-48.794c.274.089.412.141.554.176.042.01.132-.018.138-.044.075-.288.045.068-.161-.143a2.348,2.348,0,0,0-1.264-.837.653.653,0,0,0-.211.04c.035.112.035.277.111.327C36.318,27.86,36.646,28.027,36.846,28.14Zm-8.139,48.8a3.1,3.1,0,0,0,.6.08c.093-.249-.159-.291-.293-.394a5.655,5.655,0,0,0-1.915-1.09c-.116-.032-.264.05-.4.08.069.124.107.3.213.365C27.559,76.346,28.215,76.682,28.706,76.942Zm16.037-3.079c-.472-.153-.75-.255-1.035-.329a.878.878,0,0,0-.311.037.685.685,0,0,0,.137.161c.559.341.986.924,1.7.971.1.007.223-.131.314-.224a.2.2,0,0,0-.019-.188C45.215,74.108,44.89,73.941,44.743,73.863ZM21.179,78.316c.76.247,1.033.343,1.312.421.062.017.14-.026.211-.04-.037-.117-.039-.276-.119-.343a8.5,8.5,0,0,0-1.037-.778,1.694,1.694,0,0,0-.627-.125c-.2-.027-.548.226-.49.347s.116.259.215.305A3.575,3.575,0,0,0,21.179,78.316Zm15.93-24.1a5.69,5.69,0,0,0,.638.2,1.277,1.277,0,0,0,.328-.031c-.044-.055-.076-.13-.133-.164-.872-.52-1.743-1.04-2.627-1.541-.059-.033-.217.084-.313.154a.22.22,0,0,0,.046.185C35.8,53.462,36.551,53.9,37.109,54.216ZM33.609,7.1c.276.149.666.366,1.061.573.236.124.561.041.522-.123-.031-.133-.085-.321-.184-.368a12.081,12.081,0,0,0-1.436-.6,4.339,4.339,0,0,0-1.708-.437c.33.522.958.518,1.422.8C33.349,6.989,33.421,7.012,33.609,7.1Zm7.143,64.1.015-.035c.4.166.806.34,1.217.489.086.031.208-.033.313-.053-.034-.063-.052-.146-.1-.188a9.848,9.848,0,0,0-2.585-1.587.385.385,0,0,0-.515.232c-.136.283.1.419.268.508C39.813,70.8,40.287,70.991,40.753,71.2Zm2.469-7.689c.008,0-.195-.084-.4-.149a3.6,3.6,0,0,0-.429-.08c.072.089.127.208.22.264q1.693,1.023,3.4,2.025a1.021,1.021,0,0,0,.42.078.392.392,0,0,0,.2-.054.976.976,0,0,0-.082-.409.778.778,0,0,0-.322-.279C45.3,64.465,44.362,64.037,43.222,63.51ZM30.263,7.762a3.073,3.073,0,0,0,.471.147,1.288,1.288,0,0,0,.343-.043.715.715,0,0,0-.105-.19A9.415,9.415,0,0,0,27.712,5.8a.316.316,0,0,0-.211.019.217.217,0,0,0-.117.131.258.258,0,0,0,.03.206A15.309,15.309,0,0,0,30.263,7.762ZM34.92,42.754l.01-.028c.488.159.975.32,1.466.472.054.017.128-.028.193-.043-.021-.071-.019-.173-.066-.207-.357-.26-.711-.528-1.091-.753-.693-.412-1.4-.8-2.108-1.187-.132-.073-.446.208-.438.378a.752.752,0,0,0,.387.731C33.813,42.35,34.37,42.544,34.92,42.754Zm6.481.721c-.9-.291-1.462-.479-2.031-.655a.281.281,0,0,0-.213.042.19.19,0,0,0,.012.176q1.692,1.064,3.394,2.113a.8.8,0,0,0,.215.051c.145.038.424-.282.383-.461-.065-.287-.107-.608-.422-.74C42.191,43.771,41.632,43.565,41.4,43.475ZM34.566,32.257l.01-.03c.627.2,1.254.41,1.883.607.056.018.129-.016.194-.027-.019-.071-.015-.178-.061-.207q-1.857-1.176-3.724-2.335a.267.267,0,0,0-.209-.044c-.117.063-.28.146-.308.252-.172.633.017,1.054.542,1.236C33.446,31.9,34.008,32.076,34.566,32.257Zm5.484-1.791c-.419-.136-.909-.3-1.4-.452a3.163,3.163,0,0,0-.413-.072,1.257,1.257,0,0,0,.253.331q1.949,1.253,3.916,2.476a.4.4,0,0,0,.384-.08.911.911,0,0,0,.155-.594.829.829,0,0,0-.4-.487C41.746,31.2,40.931,30.858,40.05,30.466Zm5.293,32.58a3.153,3.153,0,0,0,.369.071,1.317,1.317,0,0,0,.221-.028c-.018-.13.009-.338-.062-.379-.7-.412-1.4-.828-2.124-1.183A44.509,44.509,0,0,0,38.736,59.1a.591.591,0,0,0-.216.014c.03.1.027.265.095.3,1.288.741,2.573,1.485,3.88,2.191C43.474,62.139,44.482,62.615,45.342,63.047Zm3.371-35.015c.4.132.966.317,1.53.492a.231.231,0,0,0,.206-.049.208.208,0,0,0-.031-.2q-3.836-2.221-7.682-4.426a1.186,1.186,0,0,0-.417-.112c-.2-.029-.254.071-.265.262a1.488,1.488,0,0,0,1.027,1.537Zm-9.891,7.05c-1.137-.425-2.107-.787-3.076-1.152-.138-.052-.27-.121-.407-.177-.182-.074-.3-.038-.293.1a.257.257,0,0,0,.1.19q3.589,2.19,7.186,4.368c.149.09.433-.135.459-.346.144-1.188-.019-1.518-1.006-1.9C40.744,35.77,39.7,35.4,38.822,35.081ZM39.849,46.2l.037-.093c-1.162-.47-2.323-.944-3.489-1.4-.121-.048-.374-.052-.4,0-.112.239.063.433.234.555,2.222,1.591,4.66,2.828,7,4.23.13.078.47-.188.473-.357a1.588,1.588,0,0,0-1.179-1.864C41.635,46.9,40.741,46.555,39.849,46.2Zm-1.018-4.964c1.264.411,2.388.778,3.516,1.137a.206.206,0,0,0,.184-.066c.033-.055.044-.181.009-.212a8.582,8.582,0,0,0-1.012-.846,52.486,52.486,0,0,0-7.069-3.76c-.54-.24-1.09-.458-1.648-.653a.4.4,0,0,0-.334.2,1.423,1.423,0,0,0,.728,1.851C35.122,39.7,37.043,40.49,38.831,41.235Zm7.339,30.019a11.317,11.317,0,0,0,1.319.32c.184.023.392-.144.589-.224a2.749,2.749,0,0,0-.305-.569,2.428,2.428,0,0,0-.536-.393,94.062,94.062,0,0,0-8.814-4.751,2.173,2.173,0,0,0-.634-.155c-.173-.026-.276.082-.271.271a1.816,1.816,0,0,0,.889,1.67A67.527,67.527,0,0,0,46.171,71.254ZM32.81,11.148c-.352-.114-.7-.245-1.058-.333a.408.408,0,0,0-.361.108.484.484,0,0,0-.011.408,2.024,2.024,0,0,0,.921.921c1.186.607,2.379,1.2,3.53,1.872,2.432,1.412,4.837,2.869,7.26,4.3.075.044.223-.027.33-.063a.357.357,0,0,0-.034-.205A7.345,7.345,0,0,0,40.773,15.5c-.653-.339-1.225-.831-1.854-1.221A28.783,28.783,0,0,0,32.81,11.148Z" transform="translate(44.414 114.115)" fill="#ed3542" fill-rule="evenodd"/>
    <path id="Caminho_1" data-name="Caminho 1" d="M16.59-3.43q0,2.135-2.485,3.29A9.943,9.943,0,0,1,9.73.805a16.921,16.921,0,0,1-5.18-.98Q.875-1.435.875-3.115A1.481,1.481,0,0,1,1.33-4.2a1.481,1.481,0,0,1,1.085-.455,2.491,2.491,0,0,1,1.75.77Q5.53-2.73,5.635-2.625a9.7,9.7,0,0,0,4.41.7q2.835,0,2.835-1.295,0-1.085-2.66-3.01L6.51-8.61a14.6,14.6,0,0,1-3.465-3.045A6.984,6.984,0,0,1,1.61-16,8.677,8.677,0,0,1,3.5-21.49a6.125,6.125,0,0,1,5.04-2.66,6.815,6.815,0,0,1,4.375,1.417A6.407,6.407,0,0,1,15.19-18.76q.1.98.42,2.9a3.829,3.829,0,0,1,.14.84,4.906,4.906,0,0,1-.42,2.135,1.73,1.73,0,0,1-1.645,1.19,1.707,1.707,0,0,1-1.208-.578,1.707,1.707,0,0,1-.577-1.207,6.462,6.462,0,0,1,.21-1.348,6.462,6.462,0,0,0,.21-1.347q0-4.725-3.15-4.725a3.631,3.631,0,0,0-2.94,1.487,5.12,5.12,0,0,0-1.19,3.273q0,2.52,3.01,4.9,2.765,1.855,5.565,3.71Q16.59-5.39,16.59-3.43ZM31.15-5.95A49.111,49.111,0,0,1,30.87.42Q30.695,1.5,29.4,1.5q-1.96,0-1.75-1.96a8.315,8.315,0,0,1-3.64.84,7.056,7.056,0,0,1-3.465-.91,3.176,3.176,0,0,1-1.96-2.765q0-1.645,2.24-3.08A7.172,7.172,0,0,1,24.64-7.665h2.975v-.84q.035-3.675-2.17-3.675-2.765,0-2.765,2.59,0,.875-.98.875a1.972,1.972,0,0,1-1.243-.542A1.514,1.514,0,0,1,19.81-10.4a4.139,4.139,0,0,1,1.4-3.22,4.849,4.849,0,0,1,3.36-1.26Q31.15-14.875,31.15-5.95ZM27.615-4.69q0-.7-1.05-.7-4.375,0-4.375,2.065,0,1.12,1.925,1.12a4.114,4.114,0,0,0,2.24-.665A2.122,2.122,0,0,0,27.615-4.69ZM38.15-18.375a1.646,1.646,0,0,1-.525,1.26,1.826,1.826,0,0,1-1.295.49,2.666,2.666,0,0,1-1.7-.63,1.907,1.907,0,0,1-.787-1.54,1.621,1.621,0,0,1,.542-1.26,1.936,1.936,0,0,1,1.347-.49,2.551,2.551,0,0,1,1.68.612A1.939,1.939,0,0,1,38.15-18.375Zm-.315,4.9a8.183,8.183,0,0,1-.28,1.785,8.183,8.183,0,0,0-.28,1.785v7.21A9.179,9.179,0,0,0,37.66-.6,1.444,1.444,0,0,1,36.505.21,2.17,2.17,0,0,1,34.09-2q-.35-4.1-.35-6.16a50.3,50.3,0,0,1,.28-5.81,1.781,1.781,0,0,1-.035-.35q0-.63.98-.63a4.681,4.681,0,0,1,1.75.35Q37.835-14.21,37.835-13.475ZM51.59-7.945A12.039,12.039,0,0,1,50.5-2.59,4.507,4.507,0,0,1,46.27.245,10.2,10.2,0,0,1,43.4-.42a3.231,3.231,0,0,1,.035.455q0,1.155-1.295,1.155A1.927,1.927,0,0,1,40.6.49a5.276,5.276,0,0,1-.455-2.17,22.742,22.742,0,0,1-.175-2.415v-.14l.525-19.775a1.28,1.28,0,0,1,1.33-.735.936.936,0,0,1,.35-.07,1.493,1.493,0,0,1,1.172.753,2.463,2.463,0,0,1,.543,1.418,38.355,38.355,0,0,1-.28,4.025q-.35,2.905-.385,3.99a3.251,3.251,0,0,1,2.625-1.225,5.054,5.054,0,0,1,3.465,1.382A6.324,6.324,0,0,1,51.31-11.13,14.457,14.457,0,0,1,51.59-7.945ZM48.335-8.19q0-4.76-2-4.76-1.68,0-2.555,2.415A11.232,11.232,0,0,0,43.12-6.65q0,4.41,2.66,4.41Q48.335-2.24,48.335-8.19Zm17.85,2.24A49.111,49.111,0,0,1,65.9.42Q65.73,1.5,64.435,1.5q-1.96,0-1.75-1.96a8.315,8.315,0,0,1-3.64.84,7.056,7.056,0,0,1-3.465-.91A3.176,3.176,0,0,1,53.62-3.29q0-1.645,2.24-3.08a7.172,7.172,0,0,1,3.815-1.295H62.65v-.84q.035-3.675-2.17-3.675-2.765,0-2.765,2.59,0,.875-.98.875a1.972,1.972,0,0,1-1.243-.542,1.514,1.514,0,0,1-.648-1.138,4.139,4.139,0,0,1,1.4-3.22,4.849,4.849,0,0,1,3.36-1.26Q66.185-14.875,66.185-5.95ZM62.65-4.69q0-.7-1.05-.7-4.375,0-4.375,2.065,0,1.12,1.925,1.12a4.114,4.114,0,0,0,2.24-.665A2.122,2.122,0,0,0,62.65-4.69ZM91.91-.07a3.979,3.979,0,0,1-1.82.735,3.538,3.538,0,0,1-1.4-.49q0-.56.035-1.925.035-1.225.035-1.925,0-9.31-1.54-9.31-1.155,0-1.855,2.835a15.561,15.561,0,0,0-.525,3.815v3.22A2.5,2.5,0,0,0,85-2.4a2.5,2.5,0,0,1,.158.718,1.24,1.24,0,0,1-.6,1A1.962,1.962,0,0,1,83.4-.245a1.714,1.714,0,0,1-1.19-.595A1.689,1.689,0,0,1,81.62-2v-6.51q0-3.955-.875-3.955-.14,0-.6.665a11.9,11.9,0,0,0-2.485,7.21,13.563,13.563,0,0,0,.14,1.628,13.494,13.494,0,0,1,.14,1.592A1.6,1.6,0,0,1,77.507-.21,1.507,1.507,0,0,1,76.37.245a1.637,1.637,0,0,1-1.3-.56,5.908,5.908,0,0,1-.42-1.645,13.38,13.38,0,0,1-.21-1.785v-7.63a8.269,8.269,0,0,1,.42-2.24q.525-1.68,1.12-1.68a1.767,1.767,0,0,1,1.26.542,1.465,1.465,0,0,1,.49,1.243,3,3,0,0,1,2.625-1.68q1.995,0,3.255,2.66a8.527,8.527,0,0,1,1.19-2.17,2.752,2.752,0,0,1,2.17-1.015A3.77,3.77,0,0,1,89.6-14.35q2.31,2.345,2.31,8.015Zm14.875-5.88a49.111,49.111,0,0,1-.28,6.37Q106.33,1.5,105.035,1.5q-1.96,0-1.75-1.96a8.315,8.315,0,0,1-3.64.84,7.056,7.056,0,0,1-3.465-.91A3.176,3.176,0,0,1,94.22-3.29q0-1.645,2.24-3.08a7.172,7.172,0,0,1,3.815-1.295h2.975v-.84q.035-3.675-2.17-3.675-2.765,0-2.765,2.59,0,.875-.98.875a1.972,1.972,0,0,1-1.243-.542,1.514,1.514,0,0,1-.647-1.138,4.139,4.139,0,0,1,1.4-3.22,4.849,4.849,0,0,1,3.36-1.26Q106.785-14.875,106.785-5.95ZM103.25-4.69q0-.7-1.05-.7-4.375,0-4.375,2.065,0,1.12,1.925,1.12a4.114,4.114,0,0,0,2.24-.665A2.122,2.122,0,0,0,103.25-4.69Zm10.535-13.685a1.646,1.646,0,0,1-.525,1.26,1.826,1.826,0,0,1-1.295.49,2.666,2.666,0,0,1-1.7-.63,1.907,1.907,0,0,1-.788-1.54,1.621,1.621,0,0,1,.543-1.26,1.936,1.936,0,0,1,1.347-.49,2.55,2.55,0,0,1,1.68.612A1.939,1.939,0,0,1,113.785-18.375Zm-.315,4.9a8.183,8.183,0,0,1-.28,1.785,8.183,8.183,0,0,0-.28,1.785v7.21a9.179,9.179,0,0,0,.385,2.1A1.444,1.444,0,0,1,112.14.21,2.17,2.17,0,0,1,109.725-2q-.35-4.1-.35-6.16a50.3,50.3,0,0,1,.28-5.81,1.78,1.78,0,0,1-.035-.35q0-.63.98-.63a4.681,4.681,0,0,1,1.75.35Q113.47-14.21,113.47-13.475ZM126.1-3.535a3.711,3.711,0,0,1-1.4,2.87,6.1,6.1,0,0,1-4.13,1.33A6.287,6.287,0,0,1,118.16.21q-4.2-1.575-4.2-2.555,0-1.54,2.205-1.54.315,0,.665.035.1,1.05,1.68,1.68a5.639,5.639,0,0,0,2.625.455q1.015-.07,1.015-.735a1.436,1.436,0,0,0-.052-.315,1.459,1.459,0,0,1-.052-.332q0-.123-1.33-.543-1.505-.455-1.68-.525-3.99-2.38-3.99-5.74A6.568,6.568,0,0,1,116.2-13.65a3.811,3.811,0,0,1,3.22-1.89,6.481,6.481,0,0,1,3.272,1.12,4.8,4.8,0,0,1,2.257,2.415,5.336,5.336,0,0,1,.28,1.505,2.742,2.742,0,0,1-.175,1.05l-.42,1.05a2.343,2.343,0,0,1-1.33.455,3.053,3.053,0,0,1-1.173-.437q-.822-.438-.823-.752a3.7,3.7,0,0,1,.42-.91,1.705,1.705,0,0,0,.245-.77q0-2.1-1.645-2.1-.98,0-1.5,1.26a5.691,5.691,0,0,0-.385,2.1q0,1.4,2,2.52,1.82.8,3.675,1.645Q126.1-4.48,126.1-3.535Zm19.88-.42q0,1.085-1.645,2.555A7.169,7.169,0,0,1,141.7.315a7.777,7.777,0,0,1-2.223.35,5.487,5.487,0,0,1-4.322-1.75A6.537,6.537,0,0,1,133.6-5.6a15.391,15.391,0,0,1,1.435-6.02q1.715-3.99,3.99-3.99a6.623,6.623,0,0,1,3.045.98,4.336,4.336,0,0,1,2.205,2.17,7.513,7.513,0,0,1,.28,2.135,7.846,7.846,0,0,1-.455,2.45q-.56,1.75-1.4,1.75a1.983,1.983,0,0,1-1.12-.35,1.109,1.109,0,0,1-.63-.945q0-.035.315-.8a5.958,5.958,0,0,0,.175-1.925,8.162,8.162,0,0,0-.105-1.68q-.21-1.085-.98-1.085-1.715,0-2.66,2.975a14.613,14.613,0,0,0-.7,4.445q0,3.745,2.38,3.745a3.675,3.675,0,0,0,2.17-.98,5.62,5.62,0,0,0,1.575-1.855q.56-1.12,1.365-1.12a1.346,1.346,0,0,1,1.015.612A1.877,1.877,0,0,1,145.985-3.955ZM160.3-6.895a9.131,9.131,0,0,1-1.575,5.39,5.654,5.654,0,0,1-4.83,2.555,5.453,5.453,0,0,1-4.655-2.1A8.036,8.036,0,0,1,147.8-6.09a11.951,11.951,0,0,1,1.575-5.95q1.82-3.325,4.725-3.325a4.775,4.775,0,0,1,2.275.805Q160.3-12.215,160.3-6.895Zm-3.08-.07q0-5.355-2.59-5.355-1.855,0-2.8,2.275a10.2,10.2,0,0,0-.7,3.885q0,4.655,2.765,4.655a2.83,2.83,0,0,0,2.66-1.925A8.534,8.534,0,0,0,157.22-6.965Zm22.75,6.9a3.979,3.979,0,0,1-1.82.735,3.538,3.538,0,0,1-1.4-.49q0-.56.035-1.925.035-1.225.035-1.925,0-9.31-1.54-9.31-1.155,0-1.855,2.835a15.562,15.562,0,0,0-.525,3.815v3.22a2.5,2.5,0,0,0,.158.717,2.5,2.5,0,0,1,.158.718,1.24,1.24,0,0,1-.6,1,1.962,1.962,0,0,1-1.155.438,1.714,1.714,0,0,1-1.19-.595A1.689,1.689,0,0,1,169.68-2v-6.51q0-3.955-.875-3.955-.14,0-.6.665a11.9,11.9,0,0,0-2.485,7.21,13.562,13.562,0,0,0,.14,1.628,13.492,13.492,0,0,1,.14,1.592,1.6,1.6,0,0,1-.437,1.155,1.507,1.507,0,0,1-1.137.455,1.637,1.637,0,0,1-1.295-.56,5.907,5.907,0,0,1-.42-1.645,13.381,13.381,0,0,1-.21-1.785v-7.63a8.269,8.269,0,0,1,.42-2.24q.525-1.68,1.12-1.68a1.767,1.767,0,0,1,1.26.542,1.465,1.465,0,0,1,.49,1.243,3,3,0,0,1,2.625-1.68q2,0,3.255,2.66a8.528,8.528,0,0,1,1.19-2.17,2.752,2.752,0,0,1,2.17-1.015,3.77,3.77,0,0,1,2.625,1.365q2.31,2.345,2.31,8.015Z" transform="matrix(0.985, -0.174, 0.174, 0.985, 104.365, 157.057)" fill="#ed3542"/>
    <path id="Caminho_2" data-name="Caminho 2" d="M11.07-3.39A3.37,3.37,0,0,1,9.66-1.2,6.145,6.145,0,0,1,7.395.27a6.666,6.666,0,0,1-1.9.3A4.7,4.7,0,0,1,1.785-.93,5.6,5.6,0,0,1,.45-4.8,13.192,13.192,0,0,1,1.68-9.96q1.47-3.42,3.42-3.42a5.677,5.677,0,0,1,2.61.84A3.717,3.717,0,0,1,9.6-10.68a6.439,6.439,0,0,1,.24,1.83,6.725,6.725,0,0,1-.39,2.1q-.48,1.5-1.2,1.5a1.7,1.7,0,0,1-.96-.3.95.95,0,0,1-.54-.81q0-.03.27-.69A5.107,5.107,0,0,0,7.17-8.7a7,7,0,0,0-.09-1.44q-.18-.93-.84-.93-1.47,0-2.28,2.55a12.525,12.525,0,0,0-.6,3.81Q3.36-1.5,5.4-1.5a3.15,3.15,0,0,0,1.86-.84A4.817,4.817,0,0,0,8.61-3.93q.48-.96,1.17-.96a1.154,1.154,0,0,1,.87.525A1.609,1.609,0,0,1,11.07-3.39ZM23.34-5.91a7.827,7.827,0,0,1-1.35,4.62A4.847,4.847,0,0,1,17.85.9,4.674,4.674,0,0,1,13.86-.9a6.888,6.888,0,0,1-1.23-4.32,10.243,10.243,0,0,1,1.35-5.1q1.56-2.85,4.05-2.85a4.093,4.093,0,0,1,1.95.69Q23.34-10.47,23.34-5.91ZM20.7-5.97q0-4.59-2.22-4.59-1.59,0-2.4,1.95a8.746,8.746,0,0,0-.6,3.33q0,3.99,2.37,3.99a2.425,2.425,0,0,0,2.28-1.65A7.315,7.315,0,0,0,20.7-5.97ZM35.94-.21a1.307,1.307,0,0,1-1.11.69,4.439,4.439,0,0,1-1.68-.6V-.48q0-.66.045-1.95t.045-1.89q0-6.42-1.92-6.42-.54,0-1.23.84a9.439,9.439,0,0,0-2.13,6.21,8.721,8.721,0,0,0,.195,1.515A8.721,8.721,0,0,1,28.35-.66a.811.811,0,0,1-.39.69,1.447,1.447,0,0,1-.84.27q-1.8,0-1.8-2.28V-8.25a5.994,5.994,0,0,1,.06-.7,5.994,5.994,0,0,0,.06-.7,7.581,7.581,0,0,0-.1-1.05,7.536,7.536,0,0,1-.1-1.02,1.2,1.2,0,0,1,.555-.915,1.7,1.7,0,0,1,1-.435,1.913,1.913,0,0,1,1.35.75l-.09,1.2a3.206,3.206,0,0,1,2.73-1.77,4.264,4.264,0,0,1,2.22.72,4.966,4.966,0,0,1,1.71,1.62,12.63,12.63,0,0,1,1.23,6ZM44.1-10.74q0,.81-2.49,1.14-.06.66-.06,3v1.98a11.754,11.754,0,0,0,.195,1.77,11.714,11.714,0,0,1,.195,1.74,1.077,1.077,0,0,1-.48.855A1.558,1.558,0,0,1,40.5.12q-.75,0-1.26-1.29a5.224,5.224,0,0,1-.39-1.92V-9.45q-1.38-.21-1.59-.27-.78-.24-.78-.69a.737.737,0,0,1,.06-.27,2.171,2.171,0,0,1,1.74-1.11h.18a.821.821,0,0,0,.18.03q.63,0,.6-1.47v-2.19a1.238,1.238,0,0,1-.18-.57.875.875,0,0,1,.465-.7,1.592,1.592,0,0,1,.885-.315,1.674,1.674,0,0,1,1.2.585,1.769,1.769,0,0,1,.57,1.245,4.661,4.661,0,0,1-.225,1.425A4.2,4.2,0,0,0,41.76-12.3v.12Q44.1-11.94,44.1-10.74Zm10.56,8.1q0,1.5-2.04,2.34a8.6,8.6,0,0,1-3.33.66q-4.62,0-4.62-5.25a13.127,13.127,0,0,1,1.05-4.8q1.29-3.24,3.12-3.24A5.966,5.966,0,0,1,52.4-11.46,4.021,4.021,0,0,1,54.3-8.4a3.606,3.606,0,0,1-1.77,3.15A6.5,6.5,0,0,1,48.81-4.2a3.367,3.367,0,0,1-1.35-.51q.12,2.85,1.68,2.85a5.064,5.064,0,0,0,2.6-.75,4.89,4.89,0,0,1,1.635-.75Q54.66-3.36,54.66-2.64ZM51.39-8.31a2.588,2.588,0,0,0-.435-1.425A1.321,1.321,0,0,0,49.8-10.41a1.7,1.7,0,0,0-1.53.87,3.375,3.375,0,0,0-.45,1.77,1.208,1.208,0,0,0,.39.93,1.4,1.4,0,0,0,.99.36Q51.39-6.48,51.39-8.31ZM66-11.61q0,1.08-.225,3.255T65.55-5.07q0,.84.075,2.505T65.7-.09q0,.69-1.17.69A1.455,1.455,0,0,1,63-.57a4.042,4.042,0,0,1-2.22.75A5.213,5.213,0,0,1,58.8-.285,3.428,3.428,0,0,1,57.24-1.41a7.291,7.291,0,0,1-.87-4.05q0-.96.06-3.36.09-2.13.06-3.33a2.767,2.767,0,0,1,1.5-.66,1.26,1.26,0,0,1,1.44,1.41,11.349,11.349,0,0,1-.135,1.44,11.348,11.348,0,0,0-.135,1.44v4.23a3.352,3.352,0,0,0,.39,1.5q.48.9,1.14.9,1.29,0,1.92-1.65a8.013,8.013,0,0,0,.42-2.76v-4.5a5.338,5.338,0,0,0-.36-1.71,2.188,2.188,0,0,1,1.44-.69,2.088,2.088,0,0,1,1.305.45A1.381,1.381,0,0,1,66-11.61ZM64.59-17.1a2.286,2.286,0,0,1-.345.555,1.078,1.078,0,0,1-.435.315q-.15.06-.66.345t-1.38.825a6.293,6.293,0,0,1-2.22.96,1,1,0,0,1-.69-.24.838.838,0,0,1-.24-.72v-.36q.45-.54.93-1.035t.99-1.005q1.56-1.47,2.37-1.47a1.292,1.292,0,0,1,.555.135,2.045,2.045,0,0,1,.525.36,2.824,2.824,0,0,1,.42.495,1.6,1.6,0,0,1,.24.54Zm13.83-1.14a10.566,10.566,0,0,1-.18,1.71q-.24,1.41-.3,1.68-.09.93-.285,5.49T77.46-4.32A11.306,11.306,0,0,0,78.09,0a1.425,1.425,0,0,1-1.17.84A1.717,1.717,0,0,1,75.69.315,1.886,1.886,0,0,1,75.09-.9,4.272,4.272,0,0,1,72.21.39a4.059,4.059,0,0,1-3.39-1.53,5.616,5.616,0,0,1-1.11-3.63,14.529,14.529,0,0,1,1.08-5.37q1.38-3.45,3.6-3.45a4.226,4.226,0,0,1,2.7,1.17q.15-1.41.15-7.2,0-.54.81-.54a2.886,2.886,0,0,1,1.665.48A1.626,1.626,0,0,1,78.42-18.24ZM74.94-8.07a3.876,3.876,0,0,0-.45-1.86,1.7,1.7,0,0,0-1.5-1.02q-1.35,0-2.07,2.67a13.918,13.918,0,0,0-.54,3.78q0,2.79,1.62,2.79,1.68,0,2.43-2.49A13.343,13.343,0,0,0,74.94-8.07ZM90.69-5.91a7.826,7.826,0,0,1-1.35,4.62A4.847,4.847,0,0,1,85.2.9,4.674,4.674,0,0,1,81.21-.9a6.888,6.888,0,0,1-1.23-4.32,10.243,10.243,0,0,1,1.35-5.1q1.56-2.85,4.05-2.85a4.093,4.093,0,0,1,1.95.69Q90.69-10.47,90.69-5.91Zm-2.64-.06q0-4.59-2.22-4.59-1.59,0-2.4,1.95a8.746,8.746,0,0,0-.6,3.33q0,3.99,2.37,3.99a2.425,2.425,0,0,0,2.28-1.65A7.315,7.315,0,0,0,88.05-5.97ZM108-18.24a10.566,10.566,0,0,1-.18,1.71q-.24,1.41-.3,1.68-.09.93-.285,5.49t-.195,5.04A11.306,11.306,0,0,0,107.67,0a1.425,1.425,0,0,1-1.17.84,1.717,1.717,0,0,1-1.23-.525,1.886,1.886,0,0,1-.6-1.215A4.272,4.272,0,0,1,101.79.39,4.059,4.059,0,0,1,98.4-1.14a5.616,5.616,0,0,1-1.11-3.63,14.529,14.529,0,0,1,1.08-5.37q1.38-3.45,3.6-3.45a4.226,4.226,0,0,1,2.7,1.17q.15-1.41.15-7.2,0-.54.81-.54a2.886,2.886,0,0,1,1.665.48A1.626,1.626,0,0,1,108-18.24ZM104.52-8.07a3.876,3.876,0,0,0-.45-1.86,1.7,1.7,0,0,0-1.5-1.02q-1.35,0-2.07,2.67a13.918,13.918,0,0,0-.54,3.78q0,2.79,1.62,2.79,1.68,0,2.43-2.49A13.343,13.343,0,0,0,104.52-8.07ZM119.4-2.64q0,1.5-2.04,2.34a8.6,8.6,0,0,1-3.33.66q-4.62,0-4.62-5.25a13.127,13.127,0,0,1,1.05-4.8q1.29-3.24,3.12-3.24a5.966,5.966,0,0,1,3.555,1.47A4.021,4.021,0,0,1,119.04-8.4a3.606,3.606,0,0,1-1.77,3.15,6.5,6.5,0,0,1-3.72,1.05,3.367,3.367,0,0,1-1.35-.51q.12,2.85,1.68,2.85a5.064,5.064,0,0,0,2.6-.75,4.89,4.89,0,0,1,1.635-.75Q119.4-3.36,119.4-2.64Zm-3.27-5.67a2.588,2.588,0,0,0-.435-1.425,1.321,1.321,0,0,0-1.155-.675,1.7,1.7,0,0,0-1.53.87,3.375,3.375,0,0,0-.45,1.77,1.208,1.208,0,0,0,.39.93,1.4,1.4,0,0,0,.99.36Q116.13-6.48,116.13-8.31Zm11.34-2.43q0,.81-2.49,1.14-.06.66-.06,3v1.98a11.753,11.753,0,0,0,.2,1.77,11.714,11.714,0,0,1,.195,1.74,1.077,1.077,0,0,1-.48.855,1.558,1.558,0,0,1-.96.375q-.75,0-1.26-1.29a5.224,5.224,0,0,1-.39-1.92V-9.45q-1.38-.21-1.59-.27-.78-.24-.78-.69a.737.737,0,0,1,.06-.27,2.171,2.171,0,0,1,1.74-1.11h.18a.821.821,0,0,0,.18.03q.63,0,.6-1.47v-2.19a1.238,1.238,0,0,1-.18-.57.875.875,0,0,1,.465-.7,1.592,1.592,0,0,1,.885-.315,1.674,1.674,0,0,1,1.2.585,1.769,1.769,0,0,1,.57,1.245,4.661,4.661,0,0,1-.225,1.425,4.2,4.2,0,0,0-.195,1.455v.12Q127.47-11.94,127.47-10.74ZM138.21-5.1a42.094,42.094,0,0,1-.24,5.46q-.15.93-1.26.93-1.68,0-1.5-1.68a7.127,7.127,0,0,1-3.12.72,6.048,6.048,0,0,1-2.97-.78,2.722,2.722,0,0,1-1.68-2.37q0-1.41,1.92-2.64a6.147,6.147,0,0,1,3.27-1.11h2.55v-.72q.03-3.15-1.86-3.15-2.37,0-2.37,2.22,0,.75-.84.75a1.691,1.691,0,0,1-1.065-.465,1.3,1.3,0,0,1-.555-.975,3.547,3.547,0,0,1,1.2-2.76,4.157,4.157,0,0,1,2.88-1.08Q138.21-12.75,138.21-5.1Zm-3.03,1.08q0-.6-.9-.6-3.75,0-3.75,1.77,0,.96,1.65.96a3.527,3.527,0,0,0,1.92-.57A1.819,1.819,0,0,0,135.18-4.02ZM144-.81a1.164,1.164,0,0,1-.435.915A1.493,1.493,0,0,1,142.56.48q-1.89,0-1.89-4.95,0-2.25.045-6.75t.045-6.75a8.809,8.809,0,0,0-.09-1.05,8.756,8.756,0,0,1-.09-1.02,3.173,3.173,0,0,1,1.56-.66,2.114,2.114,0,0,1,1.26.435,1.307,1.307,0,0,1,.6,1.095,2.525,2.525,0,0,1-.15.78q-.21.72-.24.78a27.3,27.3,0,0,0-.39,5.28v5.58a18.965,18.965,0,0,0,.63,5.28A2.116,2.116,0,0,1,144-.81ZM155.37.48a2.028,2.028,0,0,1-1.5.57,1.792,1.792,0,0,1-1.29-.78q.03-2.64.03-4.08,0-6.66-1.95-6.66-2.01,0-2.01,5.37,0,.3.03.87v.87A9.314,9.314,0,0,0,148.83-2a9.314,9.314,0,0,1,.15,1.365.875.875,0,0,1-.465.7,1.559,1.559,0,0,1-.855.315,1.618,1.618,0,0,1-1.275-.615,2.053,2.053,0,0,1-.525-1.365l.18-17.34a1.29,1.29,0,0,0-.03-.24,1.263,1.263,0,0,1-.03-.21q0-1.08,1.2-1.08a2.411,2.411,0,0,1,1.32.525q.75.525.75,1.065a9.908,9.908,0,0,1-.285,1.95,9.909,9.909,0,0,0-.285,1.95q0,.84.06,2.67a2.314,2.314,0,0,1,1.11-.39,6.725,6.725,0,0,1,2.55.57,4.385,4.385,0,0,1,2.46,2.43,9.541,9.541,0,0,1,.51,3.48ZM167.82-5.1a42.094,42.094,0,0,1-.24,5.46q-.15.93-1.26.93-1.68,0-1.5-1.68a7.127,7.127,0,0,1-3.12.72,6.048,6.048,0,0,1-2.97-.78,2.722,2.722,0,0,1-1.68-2.37q0-1.41,1.92-2.64a6.147,6.147,0,0,1,3.27-1.11h2.55v-.72q.03-3.15-1.86-3.15-2.37,0-2.37,2.22,0,.75-.84.75a1.691,1.691,0,0,1-1.065-.465,1.3,1.3,0,0,1-.555-.975,3.547,3.547,0,0,1,1.2-2.76,4.157,4.157,0,0,1,2.88-1.08Q167.82-12.75,167.82-5.1Zm-3.03,1.08q0-.6-.9-.6-3.75,0-3.75,1.77,0,.96,1.65.96a3.527,3.527,0,0,0,1.92-.57A1.819,1.819,0,0,0,164.79-4.02ZM180.6-18.24a10.565,10.565,0,0,1-.18,1.71q-.24,1.41-.3,1.68-.09.93-.285,5.49t-.2,5.04A11.306,11.306,0,0,0,180.27,0a1.425,1.425,0,0,1-1.17.84,1.717,1.717,0,0,1-1.23-.525,1.886,1.886,0,0,1-.6-1.215A4.272,4.272,0,0,1,174.39.39,4.059,4.059,0,0,1,171-1.14a5.616,5.616,0,0,1-1.11-3.63,14.529,14.529,0,0,1,1.08-5.37q1.38-3.45,3.6-3.45a4.226,4.226,0,0,1,2.7,1.17q.15-1.41.15-7.2,0-.54.81-.54a2.886,2.886,0,0,1,1.665.48A1.626,1.626,0,0,1,180.6-18.24ZM177.12-8.07a3.876,3.876,0,0,0-.45-1.86,1.7,1.7,0,0,0-1.5-1.02q-1.35,0-2.07,2.67a13.918,13.918,0,0,0-.54,3.78q0,2.79,1.62,2.79,1.68,0,2.43-2.49A13.343,13.343,0,0,0,177.12-8.07Zm15.75,2.16a7.827,7.827,0,0,1-1.35,4.62A4.847,4.847,0,0,1,187.38.9a4.674,4.674,0,0,1-3.99-1.8,6.888,6.888,0,0,1-1.23-4.32,10.243,10.243,0,0,1,1.35-5.1q1.56-2.85,4.05-2.85a4.093,4.093,0,0,1,1.95.69Q192.87-10.47,192.87-5.91Zm-2.64-.06q0-4.59-2.22-4.59-1.59,0-2.4,1.95a8.746,8.746,0,0,0-.6,3.33q0,3.99,2.37,3.99a2.425,2.425,0,0,0,2.28-1.65A7.315,7.315,0,0,0,190.23-5.97Z" transform="matrix(0.985, -0.174, 0.174, 0.985, 105.519, 185.206)" fill="#ed3542"/>
  </g>
</svg>
